<svg width="19" height="19" viewBox="0 0 19 19" fill="none" xmlns="http://www.w3.org/2000/svg">
<path d="M16.9527 18.1089C14.9984 20.0632 9.99345 18.2269 5.7739 14.0074C1.55435 9.7878 -0.281984 4.7829 1.67233 2.82857L2.9591 1.54181C3.84742 0.653481 5.31117 0.676963 6.22846 1.59426L8.22155 3.58735C9.13884 4.50464 9.16233 5.96838 8.274 6.85671L7.99761 7.13309C7.51799 7.61271 7.47107 8.38644 7.91673 8.92649C8.34659 9.44741 8.81002 9.96627 9.3125 10.4687C9.81498 10.9712 10.3338 11.4347 10.8548 11.8645C11.3948 12.3102 12.1685 12.2633 12.6482 11.7836L12.9245 11.5073C13.8129 10.6189 15.2766 10.6424 16.1939 11.5597L18.187 13.5528C19.1043 14.4701 19.1278 15.9338 18.2394 16.8222L16.9527 18.1089Z" fill="#9CA3AF"/>
</svg>
