<svg width="18" height="16" viewBox="0 0 18 16" fill="none" xmlns="http://www.w3.org/2000/svg">
<path d="M8.98906 6.57729L10.3852 14.1931L17.0696 15.8865C17.2026 15.9352 17.3472 15.9419 17.4841 15.9058C17.621 15.8697 17.7436 15.7925 17.8353 15.6846C17.9269 15.5768 17.9833 15.4433 17.9968 15.3024C18.0103 15.1615 17.9803 15.0198 17.9108 14.8964L9.59487 0.357166C9.53499 0.248951 9.44723 0.158749 9.34069 0.0959385C9.23415 0.0331274 9.11274 0 8.98906 0C8.86539 0 8.74397 0.0331274 8.63744 0.0959385C8.5309 0.158749 8.44313 0.248951 8.38326 0.357166L0.0880873 14.8964C0.0193108 15.0194 -0.0103096 15.1604 0.00318183 15.3007C0.0166733 15.4409 0.0726344 15.5737 0.163591 15.6813C0.254548 15.7889 0.376171 15.8662 0.512216 15.9029C0.648262 15.9396 0.792254 15.9338 0.924961 15.8865L8.38326 14.1931L8.98906 6.57729Z" fill="#9CA3AF"/>
</svg>
