<svg width="18" height="18" viewBox="0 0 18 18" fill="none" xmlns="http://www.w3.org/2000/svg">
<path d="M0.210599 8.85054C0.0758282 8.71562 8.83803e-05 8.53275 0 8.34205V0H8.34205C8.53275 8.83803e-05 8.71562 0.0758282 8.85054 0.210599L17.7893 9.14934C17.9242 9.28435 18 9.46741 18 9.65829C18 9.84916 17.9242 10.0322 17.7893 10.1672L10.1699 17.7893C10.0349 17.9242 9.85186 18 9.66099 18C9.47011 18 9.28705 17.9242 9.15204 17.7893L0.210599 8.85054Z" fill="#9CA3AF"/>
<path d="M3.96 5.03997C4.55646 5.03997 5.03999 4.55644 5.03999 3.95998C5.03999 3.36351 4.55646 2.87998 3.96 2.87998C3.36353 2.87998 2.88 3.36351 2.88 3.95998C2.88 4.55644 3.36353 5.03997 3.96 5.03997Z" fill="white"/>
</svg>
