<svg width="16" height="18" viewBox="0 0 16 18" fill="none" xmlns="http://www.w3.org/2000/svg">
<path d="M5.53849 13.7837H5.47599V13.8462V17.9375H1.44714V0.0625H13.7837V17.9375H9.75484V13.8462V13.7837H9.69234H5.53849Z" fill="#9CA3AF" stroke="#9CA3AF" stroke-width="0.125"/>
<rect x="4.15381" y="2.76923" width="2.07692" height="2.07692" fill="#9CA3AF"/>
<rect x="4.15381" y="2.76923" width="2.07692" height="2.07692" fill="white"/>
<rect x="4.15381" y="2.76923" width="2.07692" height="2.07692" fill="white"/>
<rect x="9" y="2.76923" width="2.07692" height="2.07692" fill="#9CA3AF"/>
<rect x="9" y="2.76923" width="2.07692" height="2.07692" fill="white"/>
<rect x="9" y="2.76923" width="2.07692" height="2.07692" fill="white"/>
<rect x="4.15381" y="7.61538" width="2.07692" height="2.07692" fill="#9CA3AF"/>
<rect x="4.15381" y="7.61538" width="2.07692" height="2.07692" fill="white"/>
<rect x="4.15381" y="7.61538" width="2.07692" height="2.07692" fill="white"/>
<rect x="9" y="7.61538" width="2.07692" height="2.07692" fill="#9CA3AF"/>
<rect x="9" y="7.61538" width="2.07692" height="2.07692" fill="white"/>
<rect x="9" y="7.61538" width="2.07692" height="2.07692" fill="white"/>
<rect x="13.1538" y="15.9231" width="2.07692" height="2.07692" fill="#9CA3AF"/>
<rect x="13.1538" y="15.9231" width="2.07692" height="2.07692" fill="#9CA3AF"/>
<rect y="15.9231" width="2.07692" height="2.07692" fill="#9CA3AF"/>
<rect y="15.9231" width="2.07692" height="2.07692" fill="#9CA3AF"/>
</svg>
