<svg width="21" height="21" viewBox="0 0 21 21" fill="none" xmlns="http://www.w3.org/2000/svg">
<path d="M19.5 10.5C19.5 15.4706 15.4706 19.5 10.5 19.5M19.5 10.5C19.5 5.52944 15.4706 1.5 10.5 1.5M19.5 10.5H1.5M10.5 19.5C5.52944 19.5 1.5 15.4706 1.5 10.5M10.5 19.5C12.7512 17.0355 14.0305 13.8372 14.1 10.5C14.0305 7.16283 12.7512 3.96452 10.5 1.5M10.5 19.5C8.24885 17.0355 6.96952 13.8372 6.9 10.5C6.96952 7.16283 8.24885 3.96452 10.5 1.5M1.5 10.5C1.5 5.52944 5.52944 1.5 10.5 1.5" stroke="#9CA3AF" stroke-width="1.5" stroke-linecap="round" stroke-linejoin="round"/>
</svg>
