<svg width="16" height="19" viewBox="0 0 16 19" fill="none" xmlns="http://www.w3.org/2000/svg">
<path fill-rule="evenodd" clip-rule="evenodd" d="M0.13147 8.29595C0.13147 4.08672 3.57775 0.686198 7.8144 0.686198C12.051 0.686198 15.4973 4.08672 15.4973 8.29595C15.4973 10.9139 13.9706 13.4977 12.3526 15.3785C11.5339 16.3303 10.6648 17.1338 9.89823 17.7053C9.51557 17.9905 9.14777 18.226 8.81578 18.3931C8.50456 18.5499 8.14915 18.6862 7.8144 18.6862C7.47965 18.6862 7.12424 18.5499 6.81301 18.3931C6.48103 18.226 6.11323 17.9905 5.73056 17.7053C4.964 17.1338 4.09494 16.3303 3.27615 15.3785C1.65815 13.4977 0.13147 10.9139 0.13147 8.29595ZM7.81443 10.5642C6.35963 10.5642 5.18029 9.3849 5.18029 7.9301C5.18029 6.4753 6.35963 5.29595 7.81443 5.29595C9.26923 5.29595 10.4486 6.4753 10.4486 7.9301C10.4486 9.3849 9.26923 10.5642 7.81443 10.5642Z" fill="#9CA3AF"/>
</svg>
