<svg width="18" height="15" viewBox="0 0 18 15" fill="none" xmlns="http://www.w3.org/2000/svg">
<path fill-rule="evenodd" clip-rule="evenodd" d="M15.7577 13.1226C15.803 13.1291 15.8483 13.1357 15.8936 13.1425L16.1213 13.1769C17.1128 13.3263 17.9998 12.5144 17.9998 11.4574V10.6507C17.9998 9.89479 17.5495 9.22045 16.875 8.9662C16.0956 8.67245 15.2911 8.48119 14.4789 8.3924C15.3264 9.05073 15.852 10.1168 15.852 11.2798V12.2813C15.852 12.5722 15.8192 12.8538 15.7577 13.1226ZM12.3225 7.31928C12.6602 7.46908 13.0312 7.55186 13.4205 7.55186C14.9869 7.55186 16.2567 6.21176 16.2567 4.55867C16.2567 2.90557 14.9869 1.56547 13.4205 1.56547C13.3742 1.56547 13.328 1.56664 13.2822 1.56897C13.567 2.22075 13.7262 2.9485 13.7262 3.7162C13.7262 5.12647 13.189 6.40194 12.3225 7.31928Z" fill="#9CA3AF"/>
<path fill-rule="evenodd" clip-rule="evenodd" d="M2.24212 13.1226C2.19676 13.129 2.15142 13.1357 2.10609 13.1425L1.87837 13.1769C0.886897 13.3263 -0.00015993 12.5144 -0.00015993 11.4574V10.6507C-0.00015993 9.89479 0.450127 9.22045 1.12469 8.9662C1.90407 8.67243 2.70869 8.48116 3.52093 8.39239C2.67344 9.05071 2.14779 10.1168 2.14779 11.2798V12.2813C2.14779 12.5722 2.18055 12.8538 2.24212 13.1226ZM5.67725 7.31924C5.33949 7.46906 4.96846 7.55186 4.57911 7.55186C3.01274 7.55186 1.74294 6.21176 1.74294 4.55867C1.74294 2.90557 3.01274 1.56547 4.57911 1.56547C4.62554 1.56547 4.67171 1.56665 4.71759 1.56897C4.43275 2.22075 4.27357 2.9485 4.27357 3.7162C4.27357 5.12645 4.81074 6.4019 5.67725 7.31924Z" fill="#9CA3AF"/>
<path fill-rule="evenodd" clip-rule="evenodd" d="M12.4776 3.7162C12.4776 1.6638 10.929 0 9.01878 0C7.10853 0 5.55997 1.6638 5.55997 3.7162C5.55997 5.76859 7.10853 7.43239 9.01878 7.43239C10.929 7.43239 12.4776 5.76859 12.4776 3.7162Z" fill="#9CA3AF"/>
<path fill-rule="evenodd" clip-rule="evenodd" d="M4.806 9.18835C7.53026 8.143 10.5073 8.143 13.2316 9.18835C14.0542 9.50402 14.6034 10.3412 14.6034 11.2798V12.2813C14.6034 13.5936 13.5216 14.6017 12.3124 14.4161L12.0347 14.3735C10.0342 14.0664 8.00332 14.0664 6.00285 14.3735L5.72514 14.4161C4.516 14.6017 3.4342 13.5936 3.4342 12.2813V11.2798C3.4342 10.3412 3.98334 9.50402 4.806 9.18835Z" fill="#9CA3AF"/>
</svg>
